<svg width="607" height="130" viewBox="0 0 606.67 130" xmlns="http://www.w3.org/2000/svg">
  
  <defs><linearGradient id="grad" x1="20%" y1="0%" x2="80%" y2="100%"><stop offset="0%" stop-color="#FF6B4A"/><stop offset="100%" stop-color="#8B5CF6"/></linearGradient></defs><g transform="translate(-10.935 -0.535) scale(0.483871)">
    <g transform="rotate(-20 128 128)">
      <circle cx="128" cy="128" r="80" fill="none" stroke="url(#grad)"
        stroke-width="26" stroke-linecap="round"
        stroke-dasharray="69.81 55.85"/>
    </g>
    <circle cx="128" cy="128" r="16" fill="#F3F1EC"/>
  </g>
  <g transform="translate(116.0 95) scale(0.096000 -0.096000)" fill="#F3F1EC"><g transform="translate(0.000 0)"><path d="M66 0V700H198V120H518V0Z"/></g><g transform="translate(542.000 0)"><path d="M18 0 202 700H432L616 0H480L442 154H192L154 0ZM223 276H411L326 617H308Z"/></g><g transform="translate(1176.000 0)"><path d="M46 0V116H138V584H46V700H406Q470 700 517.5 678.5Q565 657 591.5 617.5Q618 578 618 523V513Q618 465 600.0 434.5Q582 404 557.5 387.5Q533 371 511 364V346Q533 340 559.0 323.5Q585 307 603.5 276.0Q622 245 622 195V185Q622 127 595.0 85.5Q568 44 520.5 22.0Q473 0 410 0ZM270 120H394Q437 120 463.5 141.0Q490 162 490 201V211Q490 250 464.0 271.0Q438 292 394 292H270ZM270 412H392Q433 412 459.5 433.0Q486 454 486 491V501Q486 539 460.0 559.5Q434 580 392 580H270Z"/></g></g>
  <g transform="translate(294.14 95) scale(0.096000 -0.096000)" fill="#8F94A3"><g transform="translate(0.000 0)"><path d="M311 -14Q232 -14 171.0 14.0Q110 42 75.5 96.5Q41 151 41 229V254H148V229Q148 155 192.5 118.0Q237 81 311 81Q386 81 424.0 112.5Q462 144 462 194Q462 227 444.0 248.0Q426 269 393.0 281.5Q360 294 314 305L277 314Q210 330 160.5 353.5Q111 377 84.0 416.0Q57 455 57 516Q57 578 87.5 622.0Q118 666 172.0 690.0Q226 714 299 714Q372 714 429.5 689.0Q487 664 520.0 615.0Q553 566 553 492V456H446V492Q446 537 427.5 565.0Q409 593 376.0 606.0Q343 619 299 619Q235 619 199.5 592.5Q164 566 164 519Q164 487 179.5 466.5Q195 446 225.0 433.0Q255 420 300 410L337 401Q405 386 457.0 362.5Q509 339 539.0 299.0Q569 259 569 196Q569 133 537.5 86.0Q506 39 448.0 12.5Q390 -14 311 -14Z"/></g><g transform="translate(609.000 0)"><path d="M261 0Q216 0 189.5 27.0Q163 54 163 99V406H27V493H163V656H266V493H413V406H266V117Q266 87 294 87H397V0Z"/></g><g transform="translate(1067.000 0)"><path d="M265 -9Q209 -9 165.0 16.0Q121 41 96.0 87.0Q71 133 71 197V493H174V204Q174 140 206.0 109.5Q238 79 295 79Q358 79 396.5 121.5Q435 164 435 244V493H538V0H437V74H421Q407 44 371.0 17.5Q335 -9 265 -9Z"/></g><g transform="translate(1681.000 0)"><path d="M280 -14Q219 -14 167.0 16.0Q115 46 83.5 102.5Q52 159 52 239V254Q52 333 83.0 390.0Q114 447 166.0 477.0Q218 507 280 507Q328 507 360.5 495.0Q393 483 414.0 464.5Q435 446 446 426H462V700H565V0H464V70H448Q429 38 390.5 12.0Q352 -14 280 -14ZM309 76Q376 76 419.5 119.0Q463 162 463 242V251Q463 330 420.0 373.0Q377 416 309 416Q243 416 199.5 373.0Q156 330 156 251V242Q156 162 199.5 119.0Q243 76 309 76Z"/></g><g transform="translate(2322.000 0)"><path d="M76 0V493H179V0ZM128 560Q98 560 77.5 579.5Q57 599 57 630Q57 661 77.5 680.5Q98 700 128 700Q159 700 179.0 680.5Q199 661 199 630Q199 599 179.0 579.5Q159 560 128 560Z"/></g><g transform="translate(2578.000 0)"><path d="M307 -14Q233 -14 175.5 16.5Q118 47 85.0 104.0Q52 161 52 239V254Q52 332 85.0 388.5Q118 445 175.5 476.0Q233 507 307 507Q381 507 439.0 476.0Q497 445 530.0 388.5Q563 332 563 254V239Q563 161 530.0 104.0Q497 47 439.0 16.5Q381 -14 307 -14ZM307 78Q375 78 417.5 121.5Q460 165 460 242V251Q460 328 418.0 371.5Q376 415 307 415Q240 415 197.5 371.5Q155 328 155 251V242Q155 165 197.5 121.5Q240 78 307 78Z"/></g></g>
</svg>
